<svg width="8" height="8" viewBox="0 0 8 17" fill="none" xmlns="http://www.w3.org/2000/svg">
<mask id="path-1-inside-1" fill="white">
<path d="M7.06667 0.152379C7.30794 0.152379 7.51746 0.234918 7.69524 0.399998C7.87302 0.565077 7.95555 0.78095 7.94286 1.04762V13.9238C7.94286 14.0762 7.87302 14.1841 7.73333 14.2476C7.59365 14.3111 7.46667 14.2921 7.35238 14.1905L4.03809 11.2571C3.9873 11.219 3.94286 11.219 3.90476 11.2571L0.590476 14.1905C0.47619 14.2921 0.349206 14.3111 0.209524 14.2476C0.0698413 14.1841 0 14.0762 0 13.9238V1.04762C0 0.793648 0.0888889 0.577775 0.266667 0.399998C0.444444 0.22222 0.647619 0.13968 0.87619 0.152379H7.06667Z"/>
</mask>
<path d="M7.94286 1.04762L6.94399 1.00005L6.94286 1.02382V1.04762H7.94286ZM7.35238 14.1905L8.01675 13.4431L8.01514 13.4416L7.35238 14.1905ZM4.03809 11.2571L4.70085 10.5083L4.67051 10.4815L4.63809 10.4571L4.03809 11.2571ZM3.90476 11.2571L4.56752 12.006L4.59033 11.9858L4.61187 11.9642L3.90476 11.2571ZM0.590476 14.1905L-0.072285 13.4416L-0.0738878 13.4431L0.590476 14.1905ZM0.87619 0.152379L0.82072 1.15084L0.848434 1.15238H0.87619V0.152379ZM7.06667 1.15238C7.06975 1.15238 7.06767 1.15262 7.06156 1.1515C7.05531 1.15036 7.04718 1.14821 7.03824 1.14469C7.0293 1.14117 7.02216 1.1373 7.01729 1.13419C7.01255 1.13115 7.01181 1.13003 7.01479 1.13279L8.37569 -0.332796C8.01408 -0.668573 7.56189 -0.847621 7.06667 -0.847621V1.15238ZM7.01479 1.13279C6.99723 1.11649 6.97255 1.08502 6.95642 1.04285C6.94131 1.00332 6.94478 0.983404 6.94399 1.00005L8.94172 1.09518C8.96685 0.567591 8.79275 0.0544793 8.37569 -0.332796L7.01479 1.13279ZM6.94286 1.04762V13.9238H8.94286V1.04762H6.94286ZM6.94286 13.9238C6.94286 13.8435 6.96301 13.7116 7.05091 13.5758C7.13852 13.4404 7.24937 13.3691 7.31953 13.3373L8.14714 15.158C8.35698 15.0626 8.57259 14.9056 8.73005 14.6623C8.88779 14.4185 8.94286 14.1565 8.94286 13.9238H6.94286ZM7.31953 13.3373C7.39081 13.3049 7.5196 13.2677 7.68167 13.292C7.84402 13.3164 7.95701 13.39 8.01674 13.4431L6.68802 14.9379C6.86203 15.0926 7.09566 15.2265 7.38499 15.2699C7.67405 15.3132 7.93618 15.2539 8.14714 15.158L7.31953 13.3373ZM8.01514 13.4416L4.70085 10.5083L3.37534 12.006L6.68962 14.9393L8.01514 13.4416ZM4.63809 10.4571C4.51145 10.3622 4.28051 10.2286 3.96667 10.2286C3.62468 10.2286 3.36179 10.3859 3.19765 10.55L4.61187 11.9642C4.48583 12.0903 4.26421 12.2286 3.96667 12.2286C3.69726 12.2286 3.51395 12.114 3.43809 12.0571L4.63809 10.4571ZM3.242 10.5083L-0.0722835 13.4416L1.25324 14.9393L4.56752 12.006L3.242 10.5083ZM-0.0738878 13.4431C-0.0141576 13.39 0.0988384 13.3164 0.261183 13.292C0.423258 13.2677 0.552049 13.3049 0.623327 13.3373L-0.204279 15.158C0.00668119 15.2539 0.268806 15.3132 0.557864 15.2699C0.847193 15.2265 1.08082 15.0926 1.25484 14.9379L-0.0738878 13.4431ZM0.623327 13.3373C0.693486 13.3691 0.804341 13.4404 0.891951 13.5758C0.979851 13.7116 1 13.8435 1 13.9238H-1C-1 14.1565 -0.944931 14.4185 -0.787189 14.6623C-0.629738 14.9056 -0.414121 15.0626 -0.204279 15.158L0.623327 13.3373ZM1 13.9238V1.04762H-1V13.9238H1ZM1 1.04762C1 1.04265 1.00041 1.04395 0.999237 1.05018C0.998025 1.05658 0.995606 1.06564 0.991345 1.07599C0.987077 1.08635 0.982202 1.095 0.977919 1.10132C0.973733 1.1075 0.971584 1.10929 0.973773 1.1071L-0.44044 -0.307109C-0.807884 0.0603346 -1 0.531459 -1 1.04762H1ZM0.973773 1.1071C0.98192 1.09896 0.967776 1.11538 0.928758 1.13123C0.887449 1.14801 0.847292 1.15232 0.82072 1.15084L0.93166 -0.846082C0.389215 -0.876218 -0.0836119 -0.663937 -0.44044 -0.307109L0.973773 1.1071ZM0.87619 1.15238H7.06667V-0.847621H0.87619V1.15238Z" fill="black" fill-opacity="0.8" mask="url(#path-1-inside-1)"/>
</svg>
